# xmcd CD database file
#
# Track frame offsets:
#	150
#	26645
#	48790
#	74665
#	83067
#	103327
#	123750
#	147417
#	171497
#	206535
#	227355
#
# Disc length: 3310 seconds
#
# Revision: 0
# Processed by: cddbd v1.5.1PL0 Copyright (c) Steve Scherf et al.
# Submitted via: CDex 1.51
#
DISCID=970cec0b
DTITLE=Staffan Linton Trio - Unfinished Affair
DYEAR=1990
DGENRE=Jazz
TTITLE0=Heart Beat
TTITLE1=Some Other Story
TTITLE2=Song for Judith
TTITLE3=Liten Visa Till Karin (Little Tune for Karin)
TTITLE4=Unfinshed Affair
TTITLE5=Better Sweet Than Never
TTITLE6=Which Is This Thing Called What?
TTITLE7=Someonce Upon A Time
TTITLE8=Anagram
TTITLE9=The Shadow Of Your Smile (Johnny Mandel)
TTITLE10=The Whistler
EXTD=YEAR: 1990
EXTT0=
EXTT1=
EXTT2=
EXTT3=
EXTT4=
EXTT5=
EXTT6=
EXTT7=
EXTT8=
EXTT9=
EXTT10=
PLAYORDER=
